<svg xmlns="http://www.w3.org/2000/svg" width="512" height="512" viewBox="0 0 512 512">
  <defs>
    <linearGradient id="bgGrad" x1="0%" y1="0%" x2="100%" y2="100%">
      <stop offset="0%" stop-color="#a9b8d0"/>
      <stop offset="50%" stop-color="#c5cedd"/>
      <stop offset="100%" stop-color="#9dadc8"/>
    </linearGradient>
    <radialGradient id="centerLight" cx="50%" cy="52%" r="55%">
      <stop offset="0%" stop-color="#eef1f6" stop-opacity="0.55"/>
      <stop offset="100%" stop-color="#eef1f6" stop-opacity="0"/>
    </radialGradient>
    <clipPath id="roundedClip">
      <rect x="0" y="0" width="512" height="512" rx="112" ry="112"/>
    </clipPath>
    <filter id="softGlow" x="-50%" y="-50%" width="200%" height="200%">
      <feGaussianBlur stdDeviation="4" result="blur"/>
      <feMerge>
        <feMergeNode in="blur"/>
        <feMergeNode in="SourceGraphic"/>
      </feMerge>
    </filter>
  </defs>

  <g clip-path="url(#roundedClip)">
    <rect x="0" y="0" width="512" height="512" fill="url(#bgGrad)"/>

    <!-- neural network (kept clear of the N logo, precise mask-based exclusion) -->
    <g id="network">
      <line x1="68.8" y1="482.3" x2="55.7" y2="492.5" stroke="#ffffff" stroke-width="0.7" opacity="0.55"/>
<line x1="68.8" y1="482.3" x2="95.2" y2="510.5" stroke="#ffffff" stroke-width="0.7" opacity="0.55"/>
<line x1="68.8" y1="482.3" x2="112.9" y2="507.3" stroke="#ffffff" stroke-width="0.7" opacity="0.55"/>
<line x1="130.6" y1="413.8" x2="113.5" y2="402.6" stroke="#ffffff" stroke-width="0.7" opacity="0.49"/>
<line x1="130.6" y1="413.8" x2="110.9" y2="399.6" stroke="#ffffff" stroke-width="0.7" opacity="0.49"/>
<line x1="130.6" y1="413.8" x2="107.1" y2="435.3" stroke="#ffffff" stroke-width="0.7" opacity="0.49"/>
<line x1="333.6" y1="470.9" x2="360.8" y2="449.4" stroke="#ffffff" stroke-width="0.7" opacity="0.52"/>
<line x1="333.6" y1="470.9" x2="300.8" y2="489.1" stroke="#ffffff" stroke-width="0.7" opacity="0.53"/>
<line x1="333.6" y1="470.9" x2="364.1" y2="499.6" stroke="#ffffff" stroke-width="0.7" opacity="0.53"/>
<line x1="14.5" y1="480.0" x2="22.3" y2="454.3" stroke="#ffffff" stroke-width="0.7" opacity="0.55"/>
<line x1="14.5" y1="480.0" x2="55.7" y2="492.5" stroke="#ffffff" stroke-width="0.7" opacity="0.55"/>
<line x1="14.5" y1="480.0" x2="68.8" y2="482.3" stroke="#ffffff" stroke-width="0.7" opacity="0.55"/>
<line x1="390.3" y1="317.8" x2="369.4" y2="361.9" stroke="#ffffff" stroke-width="0.7" opacity="0.40"/>
<line x1="369.4" y1="361.9" x2="345.3" y2="390.3" stroke="#ffffff" stroke-width="0.7" opacity="0.41"/>
<line x1="369.4" y1="361.9" x2="390.3" y2="317.8" stroke="#ffffff" stroke-width="0.7" opacity="0.40"/>
<line x1="369.4" y1="361.9" x2="418.0" y2="367.1" stroke="#ffffff" stroke-width="0.7" opacity="0.41"/>
<line x1="461.5" y1="323.4" x2="490.0" y2="318.6" stroke="#ffffff" stroke-width="0.7" opacity="0.52"/>
<line x1="277.2" y1="500.2" x2="263.1" y2="502.8" stroke="#ffffff" stroke-width="0.7" opacity="0.55"/>
<line x1="277.2" y1="500.2" x2="276.3" y2="484.8" stroke="#ffffff" stroke-width="0.7" opacity="0.53"/>
<line x1="277.2" y1="500.2" x2="257.1" y2="508.5" stroke="#ffffff" stroke-width="0.7" opacity="0.55"/>
<line x1="110.9" y1="399.6" x2="113.5" y2="402.6" stroke="#ffffff" stroke-width="0.7" opacity="0.49"/>
<line x1="110.9" y1="399.6" x2="130.6" y2="413.8" stroke="#ffffff" stroke-width="0.7" opacity="0.49"/>
<line x1="110.9" y1="399.6" x2="88.6" y2="424.2" stroke="#ffffff" stroke-width="0.7" opacity="0.49"/>
<line x1="113.5" y1="402.6" x2="110.9" y2="399.6" stroke="#ffffff" stroke-width="0.7" opacity="0.49"/>
<line x1="113.5" y1="402.6" x2="130.6" y2="413.8" stroke="#ffffff" stroke-width="0.7" opacity="0.49"/>
<line x1="113.5" y1="402.6" x2="88.6" y2="424.2" stroke="#ffffff" stroke-width="0.7" opacity="0.49"/>
<line x1="119.3" y1="362.4" x2="117.6" y2="351.9" stroke="#ffffff" stroke-width="0.7" opacity="0.43"/>
<line x1="119.3" y1="362.4" x2="127.8" y2="338.7" stroke="#ffffff" stroke-width="0.7" opacity="0.41"/>
<line x1="119.3" y1="362.4" x2="110.9" y2="399.6" stroke="#ffffff" stroke-width="0.7" opacity="0.44"/>
<line x1="235.3" y1="373.8" x2="235.1" y2="369.8" stroke="#ffffff" stroke-width="0.7" opacity="0.34"/>
<line x1="235.3" y1="373.8" x2="258.4" y2="411.8" stroke="#ffffff" stroke-width="0.7" opacity="0.34"/>
<line x1="235.3" y1="373.8" x2="197.9" y2="399.3" stroke="#ffffff" stroke-width="0.7" opacity="0.34"/>
<line x1="428.8" y1="425.7" x2="414.3" y2="418.4" stroke="#ffffff" stroke-width="0.7" opacity="0.53"/>
<line x1="428.8" y1="425.7" x2="445.4" y2="428.3" stroke="#ffffff" stroke-width="0.7" opacity="0.55"/>
<line x1="428.8" y1="425.7" x2="425.0" y2="447.9" stroke="#ffffff" stroke-width="0.7" opacity="0.55"/>
<line x1="95.2" y1="510.5" x2="112.9" y2="507.3" stroke="#ffffff" stroke-width="0.7" opacity="0.55"/>
<line x1="95.2" y1="510.5" x2="68.8" y2="482.3" stroke="#ffffff" stroke-width="0.7" opacity="0.55"/>
<line x1="95.2" y1="510.5" x2="55.7" y2="492.5" stroke="#ffffff" stroke-width="0.7" opacity="0.55"/>
<line x1="61.9" y1="382.2" x2="81.7" y2="420.0" stroke="#ffffff" stroke-width="0.7" opacity="0.54"/>
<line x1="61.9" y1="382.2" x2="88.6" y2="424.2" stroke="#ffffff" stroke-width="0.7" opacity="0.54"/>
<line x1="61.9" y1="382.2" x2="110.9" y2="399.6" stroke="#ffffff" stroke-width="0.7" opacity="0.49"/>
<line x1="364.1" y1="499.6" x2="333.6" y2="470.9" stroke="#ffffff" stroke-width="0.7" opacity="0.53"/>
<line x1="364.1" y1="499.6" x2="360.8" y2="449.4" stroke="#ffffff" stroke-width="0.7" opacity="0.52"/>
<line x1="425.0" y1="447.9" x2="428.8" y2="425.7" stroke="#ffffff" stroke-width="0.7" opacity="0.55"/>
<line x1="425.0" y1="447.9" x2="445.4" y2="428.3" stroke="#ffffff" stroke-width="0.7" opacity="0.55"/>
<line x1="425.0" y1="447.9" x2="440.8" y2="472.8" stroke="#ffffff" stroke-width="0.7" opacity="0.55"/>
<line x1="300.8" y1="489.1" x2="276.3" y2="484.8" stroke="#ffffff" stroke-width="0.7" opacity="0.53"/>
<line x1="300.8" y1="489.1" x2="277.2" y2="500.2" stroke="#ffffff" stroke-width="0.7" opacity="0.54"/>
<line x1="300.8" y1="489.1" x2="333.6" y2="470.9" stroke="#ffffff" stroke-width="0.7" opacity="0.53"/>
<line x1="258.7" y1="432.0" x2="258.4" y2="411.8" stroke="#ffffff" stroke-width="0.7" opacity="0.41"/>
<line x1="258.7" y1="432.0" x2="260.3" y2="468.9" stroke="#ffffff" stroke-width="0.7" opacity="0.44"/>
<line x1="124.3" y1="472.6" x2="139.7" y2="455.9" stroke="#ffffff" stroke-width="0.7" opacity="0.53"/>
<line x1="124.3" y1="472.6" x2="156.9" y2="484.5" stroke="#ffffff" stroke-width="0.7" opacity="0.55"/>
<line x1="124.3" y1="472.6" x2="112.9" y2="507.3" stroke="#ffffff" stroke-width="0.7" opacity="0.55"/>
<line x1="88.6" y1="424.2" x2="81.7" y2="420.0" stroke="#ffffff" stroke-width="0.7" opacity="0.55"/>
<line x1="88.6" y1="424.2" x2="107.1" y2="435.3" stroke="#ffffff" stroke-width="0.7" opacity="0.54"/>
<line x1="88.6" y1="424.2" x2="113.5" y2="402.6" stroke="#ffffff" stroke-width="0.7" opacity="0.49"/>
<line x1="345.3" y1="390.3" x2="332.0" y2="394.3" stroke="#ffffff" stroke-width="0.7" opacity="0.41"/>
<line x1="345.3" y1="390.3" x2="313.6" y2="406.6" stroke="#ffffff" stroke-width="0.7" opacity="0.42"/>
<line x1="345.3" y1="390.3" x2="369.4" y2="361.9" stroke="#ffffff" stroke-width="0.7" opacity="0.41"/>
<line x1="260.3" y1="468.9" x2="276.3" y2="484.8" stroke="#ffffff" stroke-width="0.7" opacity="0.50"/>
<line x1="260.3" y1="468.9" x2="263.1" y2="502.8" stroke="#ffffff" stroke-width="0.7" opacity="0.50"/>
<line x1="260.3" y1="468.9" x2="277.2" y2="500.2" stroke="#ffffff" stroke-width="0.7" opacity="0.50"/>
<line x1="201.3" y1="412.7" x2="197.9" y2="399.3" stroke="#ffffff" stroke-width="0.7" opacity="0.41"/>
<line x1="201.3" y1="412.7" x2="177.2" y2="422.2" stroke="#ffffff" stroke-width="0.7" opacity="0.43"/>
<line x1="201.3" y1="412.7" x2="164.9" y2="409.6" stroke="#ffffff" stroke-width="0.7" opacity="0.43"/>
<line x1="22.3" y1="454.3" x2="14.5" y2="480.0" stroke="#ffffff" stroke-width="0.7" opacity="0.55"/>
<line x1="22.3" y1="454.3" x2="55.7" y2="492.5" stroke="#ffffff" stroke-width="0.7" opacity="0.55"/>
<line x1="22.3" y1="454.3" x2="68.8" y2="482.3" stroke="#ffffff" stroke-width="0.7" opacity="0.55"/>
<line x1="303.7" y1="394.0" x2="313.6" y2="406.6" stroke="#ffffff" stroke-width="0.7" opacity="0.39"/>
<line x1="303.7" y1="394.0" x2="332.0" y2="394.3" stroke="#ffffff" stroke-width="0.7" opacity="0.39"/>
<line x1="303.7" y1="394.0" x2="345.3" y2="390.3" stroke="#ffffff" stroke-width="0.7" opacity="0.39"/>
<line x1="257.1" y1="508.5" x2="263.1" y2="502.8" stroke="#ffffff" stroke-width="0.7" opacity="0.55"/>
<line x1="257.1" y1="508.5" x2="277.2" y2="500.2" stroke="#ffffff" stroke-width="0.7" opacity="0.55"/>
<line x1="257.1" y1="508.5" x2="276.3" y2="484.8" stroke="#ffffff" stroke-width="0.7" opacity="0.53"/>
<line x1="276.3" y1="484.8" x2="277.2" y2="500.2" stroke="#ffffff" stroke-width="0.7" opacity="0.53"/>
<line x1="276.3" y1="484.8" x2="263.1" y2="502.8" stroke="#ffffff" stroke-width="0.7" opacity="0.53"/>
<line x1="276.3" y1="484.8" x2="260.3" y2="468.9" stroke="#ffffff" stroke-width="0.7" opacity="0.50"/>
<line x1="263.1" y1="502.8" x2="257.1" y2="508.5" stroke="#ffffff" stroke-width="0.7" opacity="0.55"/>
<line x1="263.1" y1="502.8" x2="277.2" y2="500.2" stroke="#ffffff" stroke-width="0.7" opacity="0.55"/>
<line x1="263.1" y1="502.8" x2="276.3" y2="484.8" stroke="#ffffff" stroke-width="0.7" opacity="0.53"/>
<line x1="235.1" y1="369.8" x2="235.3" y2="373.8" stroke="#ffffff" stroke-width="0.7" opacity="0.34"/>
<line x1="235.1" y1="369.8" x2="258.4" y2="411.8" stroke="#ffffff" stroke-width="0.7" opacity="0.34"/>
<line x1="490.0" y1="318.6" x2="461.5" y2="323.4" stroke="#ffffff" stroke-width="0.7" opacity="0.52"/>
<line x1="420.1" y1="489.9" x2="440.8" y2="472.8" stroke="#ffffff" stroke-width="0.7" opacity="0.55"/>
<line x1="420.1" y1="489.9" x2="425.0" y2="447.9" stroke="#ffffff" stroke-width="0.7" opacity="0.55"/>
<line x1="414.3" y1="418.4" x2="428.8" y2="425.7" stroke="#ffffff" stroke-width="0.7" opacity="0.53"/>
<line x1="414.3" y1="418.4" x2="425.0" y2="447.9" stroke="#ffffff" stroke-width="0.7" opacity="0.53"/>
<line x1="414.3" y1="418.4" x2="445.4" y2="428.3" stroke="#ffffff" stroke-width="0.7" opacity="0.53"/>
<line x1="445.4" y1="428.3" x2="428.8" y2="425.7" stroke="#ffffff" stroke-width="0.7" opacity="0.55"/>
<line x1="445.4" y1="428.3" x2="425.0" y2="447.9" stroke="#ffffff" stroke-width="0.7" opacity="0.55"/>
<line x1="445.4" y1="428.3" x2="414.3" y2="418.4" stroke="#ffffff" stroke-width="0.7" opacity="0.53"/>
<line x1="258.4" y1="411.8" x2="258.7" y2="432.0" stroke="#ffffff" stroke-width="0.7" opacity="0.41"/>
<line x1="258.4" y1="411.8" x2="235.3" y2="373.8" stroke="#ffffff" stroke-width="0.7" opacity="0.34"/>
<line x1="258.4" y1="411.8" x2="235.1" y2="369.8" stroke="#ffffff" stroke-width="0.7" opacity="0.34"/>
<line x1="177.2" y1="422.2" x2="164.9" y2="409.6" stroke="#ffffff" stroke-width="0.7" opacity="0.45"/>
<line x1="177.2" y1="422.2" x2="164.5" y2="440.2" stroke="#ffffff" stroke-width="0.7" opacity="0.46"/>
<line x1="177.2" y1="422.2" x2="201.3" y2="412.7" stroke="#ffffff" stroke-width="0.7" opacity="0.43"/>
<line x1="313.6" y1="406.6" x2="303.7" y2="394.0" stroke="#ffffff" stroke-width="0.7" opacity="0.39"/>
<line x1="313.6" y1="406.6" x2="332.0" y2="394.3" stroke="#ffffff" stroke-width="0.7" opacity="0.41"/>
<line x1="313.6" y1="406.6" x2="345.3" y2="390.3" stroke="#ffffff" stroke-width="0.7" opacity="0.42"/>
<line x1="117.6" y1="351.9" x2="119.3" y2="362.4" stroke="#ffffff" stroke-width="0.7" opacity="0.43"/>
<line x1="117.6" y1="351.9" x2="127.8" y2="338.7" stroke="#ffffff" stroke-width="0.7" opacity="0.41"/>
<line x1="117.6" y1="351.9" x2="110.9" y2="399.6" stroke="#ffffff" stroke-width="0.7" opacity="0.43"/>
<line x1="440.8" y1="472.8" x2="420.1" y2="489.9" stroke="#ffffff" stroke-width="0.7" opacity="0.55"/>
<line x1="440.8" y1="472.8" x2="425.0" y2="447.9" stroke="#ffffff" stroke-width="0.7" opacity="0.55"/>
<line x1="440.8" y1="472.8" x2="445.4" y2="428.3" stroke="#ffffff" stroke-width="0.7" opacity="0.55"/>
<line x1="418.0" y1="367.1" x2="369.4" y2="361.9" stroke="#ffffff" stroke-width="0.7" opacity="0.41"/>
<line x1="418.0" y1="367.1" x2="414.3" y2="418.4" stroke="#ffffff" stroke-width="0.7" opacity="0.48"/>
<line x1="8.5" y1="320.3" x2="10.7" y2="320.9" stroke="#ffffff" stroke-width="0.7" opacity="0.55"/>
<line x1="127.8" y1="338.7" x2="117.6" y2="351.9" stroke="#ffffff" stroke-width="0.7" opacity="0.41"/>
<line x1="127.8" y1="338.7" x2="119.3" y2="362.4" stroke="#ffffff" stroke-width="0.7" opacity="0.41"/>
<line x1="81.7" y1="420.0" x2="88.6" y2="424.2" stroke="#ffffff" stroke-width="0.7" opacity="0.55"/>
<line x1="81.7" y1="420.0" x2="107.1" y2="435.3" stroke="#ffffff" stroke-width="0.7" opacity="0.54"/>
<line x1="81.7" y1="420.0" x2="110.9" y2="399.6" stroke="#ffffff" stroke-width="0.7" opacity="0.49"/>
<line x1="139.7" y1="455.9" x2="124.3" y2="472.6" stroke="#ffffff" stroke-width="0.7" opacity="0.53"/>
<line x1="139.7" y1="455.9" x2="164.5" y2="440.2" stroke="#ffffff" stroke-width="0.7" opacity="0.49"/>
<line x1="139.7" y1="455.9" x2="156.9" y2="484.5" stroke="#ffffff" stroke-width="0.7" opacity="0.53"/>
<line x1="164.9" y1="409.6" x2="177.2" y2="422.2" stroke="#ffffff" stroke-width="0.7" opacity="0.45"/>
<line x1="164.9" y1="409.6" x2="164.5" y2="440.2" stroke="#ffffff" stroke-width="0.7" opacity="0.45"/>
<line x1="164.9" y1="409.6" x2="130.6" y2="413.8" stroke="#ffffff" stroke-width="0.7" opacity="0.45"/>
<line x1="197.9" y1="399.3" x2="201.3" y2="412.7" stroke="#ffffff" stroke-width="0.7" opacity="0.41"/>
<line x1="197.9" y1="399.3" x2="177.2" y2="422.2" stroke="#ffffff" stroke-width="0.7" opacity="0.41"/>
<line x1="197.9" y1="399.3" x2="164.9" y2="409.6" stroke="#ffffff" stroke-width="0.7" opacity="0.41"/>
<line x1="55.7" y1="492.5" x2="68.8" y2="482.3" stroke="#ffffff" stroke-width="0.7" opacity="0.55"/>
<line x1="55.7" y1="492.5" x2="14.5" y2="480.0" stroke="#ffffff" stroke-width="0.7" opacity="0.55"/>
<line x1="55.7" y1="492.5" x2="95.2" y2="510.5" stroke="#ffffff" stroke-width="0.7" opacity="0.55"/>
<line x1="107.1" y1="435.3" x2="88.6" y2="424.2" stroke="#ffffff" stroke-width="0.7" opacity="0.54"/>
<line x1="107.1" y1="435.3" x2="81.7" y2="420.0" stroke="#ffffff" stroke-width="0.7" opacity="0.54"/>
<line x1="107.1" y1="435.3" x2="130.6" y2="413.8" stroke="#ffffff" stroke-width="0.7" opacity="0.49"/>
<line x1="10.7" y1="320.9" x2="8.5" y2="320.3" stroke="#ffffff" stroke-width="0.7" opacity="0.55"/>
<line x1="360.8" y1="449.4" x2="333.6" y2="470.9" stroke="#ffffff" stroke-width="0.7" opacity="0.52"/>
<line x1="360.8" y1="449.4" x2="364.1" y2="499.6" stroke="#ffffff" stroke-width="0.7" opacity="0.52"/>
<line x1="112.9" y1="507.3" x2="95.2" y2="510.5" stroke="#ffffff" stroke-width="0.7" opacity="0.55"/>
<line x1="112.9" y1="507.3" x2="124.3" y2="472.6" stroke="#ffffff" stroke-width="0.7" opacity="0.55"/>
<line x1="112.9" y1="507.3" x2="152.9" y2="505.8" stroke="#ffffff" stroke-width="0.7" opacity="0.55"/>
<line x1="332.0" y1="394.3" x2="345.3" y2="390.3" stroke="#ffffff" stroke-width="0.7" opacity="0.41"/>
<line x1="332.0" y1="394.3" x2="313.6" y2="406.6" stroke="#ffffff" stroke-width="0.7" opacity="0.41"/>
<line x1="332.0" y1="394.3" x2="303.7" y2="394.0" stroke="#ffffff" stroke-width="0.7" opacity="0.39"/>
<line x1="164.5" y1="440.2" x2="177.2" y2="422.2" stroke="#ffffff" stroke-width="0.7" opacity="0.46"/>
<line x1="164.5" y1="440.2" x2="139.7" y2="455.9" stroke="#ffffff" stroke-width="0.7" opacity="0.49"/>
<line x1="164.5" y1="440.2" x2="164.9" y2="409.6" stroke="#ffffff" stroke-width="0.7" opacity="0.45"/>
<line x1="152.9" y1="505.8" x2="156.9" y2="484.5" stroke="#ffffff" stroke-width="0.7" opacity="0.55"/>
<line x1="152.9" y1="505.8" x2="112.9" y2="507.3" stroke="#ffffff" stroke-width="0.7" opacity="0.55"/>
<line x1="152.9" y1="505.8" x2="124.3" y2="472.6" stroke="#ffffff" stroke-width="0.7" opacity="0.55"/>
<line x1="156.9" y1="484.5" x2="152.9" y2="505.8" stroke="#ffffff" stroke-width="0.7" opacity="0.55"/>
<line x1="156.9" y1="484.5" x2="139.7" y2="455.9" stroke="#ffffff" stroke-width="0.7" opacity="0.53"/>
<line x1="156.9" y1="484.5" x2="124.3" y2="472.6" stroke="#ffffff" stroke-width="0.7" opacity="0.55"/>
<line x1="12.2" y1="17.4" x2="50.8" y2="4.9" stroke="#ffffff" stroke-width="0.7" opacity="0.55"/>
<line x1="12.2" y1="17.4" x2="57.7" y2="7.4" stroke="#ffffff" stroke-width="0.7" opacity="0.55"/>
<line x1="158.3" y1="137.2" x2="171.3" y2="150.4" stroke="#ffffff" stroke-width="0.7" opacity="0.39"/>
<line x1="158.3" y1="137.2" x2="130.3" y2="124.3" stroke="#ffffff" stroke-width="0.7" opacity="0.42"/>
<line x1="158.3" y1="137.2" x2="155.6" y2="99.7" stroke="#ffffff" stroke-width="0.7" opacity="0.42"/>
<line x1="130.3" y1="124.3" x2="108.4" y2="106.0" stroke="#ffffff" stroke-width="0.7" opacity="0.47"/>
<line x1="130.3" y1="124.3" x2="158.3" y2="137.2" stroke="#ffffff" stroke-width="0.7" opacity="0.42"/>
<line x1="130.3" y1="124.3" x2="99.1" y2="116.3" stroke="#ffffff" stroke-width="0.7" opacity="0.47"/>
<line x1="34.1" y1="88.2" x2="29.4" y2="104.5" stroke="#ffffff" stroke-width="0.7" opacity="0.55"/>
<line x1="204.2" y1="111.4" x2="198.9" y2="102.6" stroke="#ffffff" stroke-width="0.7" opacity="0.42"/>
<line x1="204.2" y1="111.4" x2="191.8" y2="107.7" stroke="#ffffff" stroke-width="0.7" opacity="0.42"/>
<line x1="204.2" y1="111.4" x2="155.6" y2="99.7" stroke="#ffffff" stroke-width="0.7" opacity="0.42"/>
<line x1="57.7" y1="7.4" x2="50.8" y2="4.9" stroke="#ffffff" stroke-width="0.7" opacity="0.55"/>
<line x1="57.7" y1="7.4" x2="12.2" y2="17.4" stroke="#ffffff" stroke-width="0.7" opacity="0.55"/>
<line x1="100.0" y1="65.2" x2="126.4" y2="63.9" stroke="#ffffff" stroke-width="0.7" opacity="0.55"/>
<line x1="100.0" y1="65.2" x2="108.4" y2="106.0" stroke="#ffffff" stroke-width="0.7" opacity="0.52"/>
<line x1="100.0" y1="65.2" x2="99.2" y2="108.6" stroke="#ffffff" stroke-width="0.7" opacity="0.52"/>
<line x1="191.8" y1="107.7" x2="198.9" y2="102.6" stroke="#ffffff" stroke-width="0.7" opacity="0.44"/>
<line x1="191.8" y1="107.7" x2="204.2" y2="111.4" stroke="#ffffff" stroke-width="0.7" opacity="0.42"/>
<line x1="191.8" y1="107.7" x2="155.6" y2="99.7" stroke="#ffffff" stroke-width="0.7" opacity="0.44"/>
<line x1="50.8" y1="4.9" x2="57.7" y2="7.4" stroke="#ffffff" stroke-width="0.7" opacity="0.55"/>
<line x1="50.8" y1="4.9" x2="12.2" y2="17.4" stroke="#ffffff" stroke-width="0.7" opacity="0.55"/>
<line x1="29.4" y1="104.5" x2="34.1" y2="88.2" stroke="#ffffff" stroke-width="0.7" opacity="0.55"/>
<line x1="145.0" y1="37.2" x2="126.4" y2="63.9" stroke="#ffffff" stroke-width="0.7" opacity="0.55"/>
<line x1="171.3" y1="150.4" x2="158.3" y2="137.2" stroke="#ffffff" stroke-width="0.7" opacity="0.39"/>
<line x1="171.3" y1="150.4" x2="191.8" y2="107.7" stroke="#ffffff" stroke-width="0.7" opacity="0.39"/>
<line x1="171.3" y1="150.4" x2="130.3" y2="124.3" stroke="#ffffff" stroke-width="0.7" opacity="0.39"/>
<line x1="76.1" y1="200.9" x2="66.6" y2="196.1" stroke="#ffffff" stroke-width="0.7" opacity="0.48"/>
<line x1="76.1" y1="200.9" x2="76.1" y2="180.8" stroke="#ffffff" stroke-width="0.7" opacity="0.48"/>
<line x1="76.1" y1="200.9" x2="110.1" y2="191.3" stroke="#ffffff" stroke-width="0.7" opacity="0.43"/>
<line x1="34.7" y1="154.4" x2="16.2" y2="168.0" stroke="#ffffff" stroke-width="0.7" opacity="0.55"/>
<line x1="34.7" y1="154.4" x2="69.8" y2="143.3" stroke="#ffffff" stroke-width="0.7" opacity="0.53"/>
<line x1="34.7" y1="154.4" x2="76.1" y2="180.8" stroke="#ffffff" stroke-width="0.7" opacity="0.49"/>
<line x1="99.2" y1="108.6" x2="99.1" y2="116.3" stroke="#ffffff" stroke-width="0.7" opacity="0.52"/>
<line x1="99.2" y1="108.6" x2="108.4" y2="106.0" stroke="#ffffff" stroke-width="0.7" opacity="0.52"/>
<line x1="99.2" y1="108.6" x2="130.3" y2="124.3" stroke="#ffffff" stroke-width="0.7" opacity="0.47"/>
<line x1="198.9" y1="102.6" x2="191.8" y2="107.7" stroke="#ffffff" stroke-width="0.7" opacity="0.44"/>
<line x1="198.9" y1="102.6" x2="204.2" y2="111.4" stroke="#ffffff" stroke-width="0.7" opacity="0.42"/>
<line x1="198.9" y1="102.6" x2="155.6" y2="99.7" stroke="#ffffff" stroke-width="0.7" opacity="0.44"/>
<line x1="76.1" y1="180.8" x2="66.6" y2="196.1" stroke="#ffffff" stroke-width="0.7" opacity="0.49"/>
<line x1="76.1" y1="180.8" x2="76.1" y2="200.9" stroke="#ffffff" stroke-width="0.7" opacity="0.48"/>
<line x1="76.1" y1="180.8" x2="110.1" y2="191.3" stroke="#ffffff" stroke-width="0.7" opacity="0.43"/>
<line x1="99.1" y1="116.3" x2="99.2" y2="108.6" stroke="#ffffff" stroke-width="0.7" opacity="0.52"/>
<line x1="99.1" y1="116.3" x2="108.4" y2="106.0" stroke="#ffffff" stroke-width="0.7" opacity="0.52"/>
<line x1="99.1" y1="116.3" x2="130.3" y2="124.3" stroke="#ffffff" stroke-width="0.7" opacity="0.47"/>
<line x1="155.6" y1="99.7" x2="130.3" y2="124.3" stroke="#ffffff" stroke-width="0.7" opacity="0.47"/>
<line x1="155.6" y1="99.7" x2="191.8" y2="107.7" stroke="#ffffff" stroke-width="0.7" opacity="0.44"/>
<line x1="155.6" y1="99.7" x2="158.3" y2="137.2" stroke="#ffffff" stroke-width="0.7" opacity="0.42"/>
<line x1="69.8" y1="143.3" x2="34.7" y2="154.4" stroke="#ffffff" stroke-width="0.7" opacity="0.53"/>
<line x1="69.8" y1="143.3" x2="76.1" y2="180.8" stroke="#ffffff" stroke-width="0.7" opacity="0.49"/>
<line x1="69.8" y1="143.3" x2="99.1" y2="116.3" stroke="#ffffff" stroke-width="0.7" opacity="0.52"/>
<line x1="195.2" y1="54.9" x2="198.9" y2="102.6" stroke="#ffffff" stroke-width="0.7" opacity="0.44"/>
<line x1="66.6" y1="196.1" x2="76.1" y2="200.9" stroke="#ffffff" stroke-width="0.7" opacity="0.48"/>
<line x1="66.6" y1="196.1" x2="76.1" y2="180.8" stroke="#ffffff" stroke-width="0.7" opacity="0.49"/>
<line x1="66.6" y1="196.1" x2="110.1" y2="191.3" stroke="#ffffff" stroke-width="0.7" opacity="0.43"/>
<line x1="108.4" y1="106.0" x2="99.2" y2="108.6" stroke="#ffffff" stroke-width="0.7" opacity="0.52"/>
<line x1="108.4" y1="106.0" x2="99.1" y2="116.3" stroke="#ffffff" stroke-width="0.7" opacity="0.52"/>
<line x1="108.4" y1="106.0" x2="130.3" y2="124.3" stroke="#ffffff" stroke-width="0.7" opacity="0.47"/>
<line x1="126.4" y1="63.9" x2="100.0" y2="65.2" stroke="#ffffff" stroke-width="0.7" opacity="0.55"/>
<line x1="126.4" y1="63.9" x2="145.0" y2="37.2" stroke="#ffffff" stroke-width="0.7" opacity="0.55"/>
<line x1="126.4" y1="63.9" x2="108.4" y2="106.0" stroke="#ffffff" stroke-width="0.7" opacity="0.52"/>
<line x1="110.1" y1="191.3" x2="76.1" y2="200.9" stroke="#ffffff" stroke-width="0.7" opacity="0.43"/>
<line x1="110.1" y1="191.3" x2="76.1" y2="180.8" stroke="#ffffff" stroke-width="0.7" opacity="0.43"/>
<line x1="110.1" y1="191.3" x2="66.6" y2="196.1" stroke="#ffffff" stroke-width="0.7" opacity="0.43"/>
<line x1="16.2" y1="168.0" x2="34.7" y2="154.4" stroke="#ffffff" stroke-width="0.7" opacity="0.55"/>
<line x1="402.8" y1="278.6" x2="375.0" y2="314.6" stroke="#ffffff" stroke-width="0.7" opacity="0.37"/>
<line x1="402.8" y1="278.6" x2="390.2" y2="325.0" stroke="#ffffff" stroke-width="0.7" opacity="0.40"/>
<line x1="455.2" y1="320.4" x2="443.2" y2="329.7" stroke="#ffffff" stroke-width="0.7" opacity="0.49"/>
<line x1="455.2" y1="320.4" x2="436.4" y2="368.0" stroke="#ffffff" stroke-width="0.7" opacity="0.51"/>
<line x1="370.5" y1="428.8" x2="377.8" y2="388.2" stroke="#ffffff" stroke-width="0.7" opacity="0.45"/>
<line x1="370.5" y1="428.8" x2="410.8" y2="393.6" stroke="#ffffff" stroke-width="0.7" opacity="0.50"/>
<line x1="402.2" y1="509.8" x2="399.7" y2="494.3" stroke="#ffffff" stroke-width="0.7" opacity="0.55"/>
<line x1="488.6" y1="243.9" x2="483.5" y2="227.6" stroke="#ffffff" stroke-width="0.7" opacity="0.54"/>
<line x1="488.6" y1="243.9" x2="509.2" y2="258.8" stroke="#ffffff" stroke-width="0.7" opacity="0.55"/>
<line x1="488.6" y1="243.9" x2="483.4" y2="210.2" stroke="#ffffff" stroke-width="0.7" opacity="0.55"/>
<line x1="390.2" y1="325.0" x2="375.0" y2="314.6" stroke="#ffffff" stroke-width="0.7" opacity="0.37"/>
<line x1="390.2" y1="325.0" x2="402.8" y2="278.6" stroke="#ffffff" stroke-width="0.7" opacity="0.40"/>
<line x1="390.2" y1="325.0" x2="443.2" y2="329.7" stroke="#ffffff" stroke-width="0.7" opacity="0.41"/>
<line x1="443.6" y1="379.5" x2="436.4" y2="368.0" stroke="#ffffff" stroke-width="0.7" opacity="0.51"/>
<line x1="443.6" y1="379.5" x2="410.8" y2="393.6" stroke="#ffffff" stroke-width="0.7" opacity="0.50"/>
<line x1="443.6" y1="379.5" x2="443.2" y2="329.7" stroke="#ffffff" stroke-width="0.7" opacity="0.49"/>
<line x1="377.8" y1="388.2" x2="410.8" y2="393.6" stroke="#ffffff" stroke-width="0.7" opacity="0.45"/>
<line x1="377.8" y1="388.2" x2="370.5" y2="428.8" stroke="#ffffff" stroke-width="0.7" opacity="0.45"/>
<line x1="411.8" y1="15.9" x2="413.0" y2="39.4" stroke="#ffffff" stroke-width="0.7" opacity="0.55"/>
<line x1="436.4" y1="368.0" x2="443.6" y2="379.5" stroke="#ffffff" stroke-width="0.7" opacity="0.51"/>
<line x1="436.4" y1="368.0" x2="410.8" y2="393.6" stroke="#ffffff" stroke-width="0.7" opacity="0.50"/>
<line x1="436.4" y1="368.0" x2="443.2" y2="329.7" stroke="#ffffff" stroke-width="0.7" opacity="0.49"/>
<line x1="471.0" y1="471.6" x2="452.4" y2="463.0" stroke="#ffffff" stroke-width="0.7" opacity="0.55"/>
<line x1="471.0" y1="471.6" x2="506.9" y2="463.2" stroke="#ffffff" stroke-width="0.7" opacity="0.55"/>
<line x1="471.0" y1="471.6" x2="491.1" y2="506.8" stroke="#ffffff" stroke-width="0.7" opacity="0.55"/>
<line x1="483.5" y1="227.6" x2="488.6" y2="243.9" stroke="#ffffff" stroke-width="0.7" opacity="0.54"/>
<line x1="483.5" y1="227.6" x2="483.4" y2="210.2" stroke="#ffffff" stroke-width="0.7" opacity="0.54"/>
<line x1="483.5" y1="227.6" x2="497.2" y2="193.4" stroke="#ffffff" stroke-width="0.7" opacity="0.54"/>
<line x1="494.6" y1="49.9" x2="464.9" y2="83.5" stroke="#ffffff" stroke-width="0.7" opacity="0.55"/>
<line x1="494.6" y1="49.9" x2="456.2" y2="80.0" stroke="#ffffff" stroke-width="0.7" opacity="0.55"/>
<line x1="399.7" y1="494.3" x2="402.2" y2="509.8" stroke="#ffffff" stroke-width="0.7" opacity="0.55"/>
<line x1="458.5" y1="154.1" x2="450.9" y2="145.9" stroke="#ffffff" stroke-width="0.7" opacity="0.54"/>
<line x1="458.5" y1="154.1" x2="471.6" y2="169.4" stroke="#ffffff" stroke-width="0.7" opacity="0.54"/>
<line x1="458.5" y1="154.1" x2="493.0" y2="160.7" stroke="#ffffff" stroke-width="0.7" opacity="0.54"/>
<line x1="424.0" y1="179.7" x2="458.5" y2="154.1" stroke="#ffffff" stroke-width="0.7" opacity="0.47"/>
<line x1="424.0" y1="179.7" x2="450.9" y2="145.9" stroke="#ffffff" stroke-width="0.7" opacity="0.47"/>
<line x1="424.0" y1="179.7" x2="471.6" y2="169.4" stroke="#ffffff" stroke-width="0.7" opacity="0.47"/>
<line x1="452.4" y1="463.0" x2="471.0" y2="471.6" stroke="#ffffff" stroke-width="0.7" opacity="0.55"/>
<line x1="452.4" y1="463.0" x2="506.9" y2="463.2" stroke="#ffffff" stroke-width="0.7" opacity="0.55"/>
<line x1="501.8" y1="438.5" x2="506.9" y2="463.2" stroke="#ffffff" stroke-width="0.7" opacity="0.55"/>
<line x1="501.8" y1="438.5" x2="471.0" y2="471.6" stroke="#ffffff" stroke-width="0.7" opacity="0.55"/>
<line x1="464.9" y1="83.5" x2="456.2" y2="80.0" stroke="#ffffff" stroke-width="0.7" opacity="0.55"/>
<line x1="464.9" y1="83.5" x2="471.0" y2="108.1" stroke="#ffffff" stroke-width="0.7" opacity="0.55"/>
<line x1="464.9" y1="83.5" x2="494.6" y2="49.9" stroke="#ffffff" stroke-width="0.7" opacity="0.55"/>
<line x1="506.9" y1="463.2" x2="501.8" y2="438.5" stroke="#ffffff" stroke-width="0.7" opacity="0.55"/>
<line x1="506.9" y1="463.2" x2="471.0" y2="471.6" stroke="#ffffff" stroke-width="0.7" opacity="0.55"/>
<line x1="506.9" y1="463.2" x2="491.1" y2="506.8" stroke="#ffffff" stroke-width="0.7" opacity="0.55"/>
<line x1="471.0" y1="108.1" x2="464.9" y2="83.5" stroke="#ffffff" stroke-width="0.7" opacity="0.55"/>
<line x1="471.0" y1="108.1" x2="456.2" y2="80.0" stroke="#ffffff" stroke-width="0.7" opacity="0.55"/>
<line x1="471.0" y1="108.1" x2="450.9" y2="145.9" stroke="#ffffff" stroke-width="0.7" opacity="0.54"/>
<line x1="450.9" y1="145.9" x2="458.5" y2="154.1" stroke="#ffffff" stroke-width="0.7" opacity="0.54"/>
<line x1="450.9" y1="145.9" x2="471.6" y2="169.4" stroke="#ffffff" stroke-width="0.7" opacity="0.54"/>
<line x1="450.9" y1="145.9" x2="471.0" y2="108.1" stroke="#ffffff" stroke-width="0.7" opacity="0.54"/>
<line x1="491.1" y1="506.8" x2="471.0" y2="471.6" stroke="#ffffff" stroke-width="0.7" opacity="0.55"/>
<line x1="491.1" y1="506.8" x2="506.9" y2="463.2" stroke="#ffffff" stroke-width="0.7" opacity="0.55"/>
<line x1="483.4" y1="210.2" x2="483.5" y2="227.6" stroke="#ffffff" stroke-width="0.7" opacity="0.54"/>
<line x1="483.4" y1="210.2" x2="497.2" y2="193.4" stroke="#ffffff" stroke-width="0.7" opacity="0.55"/>
<line x1="483.4" y1="210.2" x2="488.6" y2="243.9" stroke="#ffffff" stroke-width="0.7" opacity="0.55"/>
<line x1="410.8" y1="393.6" x2="377.8" y2="388.2" stroke="#ffffff" stroke-width="0.7" opacity="0.45"/>
<line x1="410.8" y1="393.6" x2="443.6" y2="379.5" stroke="#ffffff" stroke-width="0.7" opacity="0.50"/>
<line x1="410.8" y1="393.6" x2="436.4" y2="368.0" stroke="#ffffff" stroke-width="0.7" opacity="0.50"/>
<line x1="375.0" y1="314.6" x2="390.2" y2="325.0" stroke="#ffffff" stroke-width="0.7" opacity="0.37"/>
<line x1="375.0" y1="314.6" x2="402.8" y2="278.6" stroke="#ffffff" stroke-width="0.7" opacity="0.37"/>
<line x1="471.6" y1="169.4" x2="458.5" y2="154.1" stroke="#ffffff" stroke-width="0.7" opacity="0.54"/>
<line x1="471.6" y1="169.4" x2="493.0" y2="160.7" stroke="#ffffff" stroke-width="0.7" opacity="0.55"/>
<line x1="471.6" y1="169.4" x2="450.9" y2="145.9" stroke="#ffffff" stroke-width="0.7" opacity="0.54"/>
<line x1="509.2" y1="258.8" x2="488.6" y2="243.9" stroke="#ffffff" stroke-width="0.7" opacity="0.55"/>
<line x1="509.2" y1="258.8" x2="483.5" y2="227.6" stroke="#ffffff" stroke-width="0.7" opacity="0.54"/>
<line x1="413.0" y1="39.4" x2="411.8" y2="15.9" stroke="#ffffff" stroke-width="0.7" opacity="0.55"/>
<line x1="456.2" y1="80.0" x2="464.9" y2="83.5" stroke="#ffffff" stroke-width="0.7" opacity="0.55"/>
<line x1="456.2" y1="80.0" x2="471.0" y2="108.1" stroke="#ffffff" stroke-width="0.7" opacity="0.55"/>
<line x1="456.2" y1="80.0" x2="494.6" y2="49.9" stroke="#ffffff" stroke-width="0.7" opacity="0.55"/>
<line x1="493.0" y1="160.7" x2="471.6" y2="169.4" stroke="#ffffff" stroke-width="0.7" opacity="0.55"/>
<line x1="493.0" y1="160.7" x2="497.2" y2="193.4" stroke="#ffffff" stroke-width="0.7" opacity="0.55"/>
<line x1="493.0" y1="160.7" x2="458.5" y2="154.1" stroke="#ffffff" stroke-width="0.7" opacity="0.54"/>
<line x1="497.2" y1="193.4" x2="483.4" y2="210.2" stroke="#ffffff" stroke-width="0.7" opacity="0.55"/>
<line x1="497.2" y1="193.4" x2="493.0" y2="160.7" stroke="#ffffff" stroke-width="0.7" opacity="0.55"/>
<line x1="497.2" y1="193.4" x2="471.6" y2="169.4" stroke="#ffffff" stroke-width="0.7" opacity="0.55"/>
<line x1="443.2" y1="329.7" x2="455.2" y2="320.4" stroke="#ffffff" stroke-width="0.7" opacity="0.49"/>
<line x1="443.2" y1="329.7" x2="436.4" y2="368.0" stroke="#ffffff" stroke-width="0.7" opacity="0.49"/>
<line x1="443.2" y1="329.7" x2="443.6" y2="379.5" stroke="#ffffff" stroke-width="0.7" opacity="0.49"/>
      <circle cx="68.8" cy="482.3" r="2.57" fill="#ffffff" opacity="1.00"/>
<circle cx="130.6" cy="413.8" r="2.01" fill="#ffffff" opacity="0.89"/>
<circle cx="333.6" cy="470.9" r="1.37" fill="#ffffff" opacity="0.96"/>
<circle cx="14.5" cy="480.0" r="1.98" fill="#ffffff" opacity="1.00"/>
<circle cx="390.3" cy="317.8" r="2.00" fill="#ffffff" opacity="0.73"/>
<circle cx="369.4" cy="361.9" r="2.90" fill="#ffffff" opacity="0.75"/>
<circle cx="461.5" cy="323.4" r="1.25" fill="#ffffff" opacity="0.94"/>
<circle cx="277.2" cy="500.2" r="1.89" fill="#ffffff" opacity="1.00"/>
<circle cx="110.9" cy="399.6" r="1.25" fill="#ffffff" opacity="0.90"/>
<circle cx="113.5" cy="402.6" r="2.09" fill="#ffffff" opacity="0.90"/>
<circle cx="119.3" cy="362.4" r="1.59" fill="#ffffff" opacity="0.80"/>
<circle cx="235.3" cy="373.8" r="1.24" fill="#ffffff" opacity="0.62"/>
<circle cx="428.8" cy="425.7" r="2.36" fill="#ffffff" opacity="1.00"/>
<circle cx="95.2" cy="510.5" r="2.75" fill="#ffffff" opacity="1.00"/>
<circle cx="61.9" cy="382.2" r="2.50" fill="#ffffff" opacity="0.98"/>
<circle cx="364.1" cy="499.6" r="1.96" fill="#ffffff" opacity="1.00"/>
<circle cx="425.0" cy="447.9" r="1.75" fill="#ffffff" opacity="1.00"/>
<circle cx="300.8" cy="489.1" r="2.72" fill="#ffffff" opacity="0.99"/>
<circle cx="258.7" cy="432.0" r="1.26" fill="#ffffff" opacity="0.81"/>
<circle cx="124.3" cy="472.6" r="1.95" fill="#ffffff" opacity="1.00"/>
<circle cx="88.6" cy="424.2" r="2.47" fill="#ffffff" opacity="0.99"/>
<circle cx="345.3" cy="390.3" r="1.99" fill="#ffffff" opacity="0.76"/>
<circle cx="260.3" cy="468.9" r="2.14" fill="#ffffff" opacity="0.92"/>
<circle cx="201.3" cy="412.7" r="1.25" fill="#ffffff" opacity="0.77"/>
<circle cx="22.3" cy="454.3" r="2.97" fill="#ffffff" opacity="1.00"/>
<circle cx="303.7" cy="394.0" r="1.51" fill="#ffffff" opacity="0.71"/>
<circle cx="257.1" cy="508.5" r="2.59" fill="#ffffff" opacity="1.00"/>
<circle cx="276.3" cy="484.8" r="1.62" fill="#ffffff" opacity="0.97"/>
<circle cx="263.1" cy="502.8" r="2.24" fill="#ffffff" opacity="1.00"/>
<circle cx="235.1" cy="369.8" r="2.19" fill="#ffffff" opacity="0.61"/>
<circle cx="490.0" cy="318.6" r="2.61" fill="#ffffff" opacity="1.00"/>
<circle cx="420.1" cy="489.9" r="2.53" fill="#ffffff" opacity="1.00"/>
<circle cx="414.3" cy="418.4" r="2.21" fill="#ffffff" opacity="0.96"/>
<circle cx="445.4" cy="428.3" r="1.56" fill="#ffffff" opacity="1.00"/>
<circle cx="258.4" cy="411.8" r="1.84" fill="#ffffff" opacity="0.74"/>
<circle cx="177.2" cy="422.2" r="2.32" fill="#ffffff" opacity="0.83"/>
<circle cx="313.6" cy="406.6" r="1.25" fill="#ffffff" opacity="0.76"/>
<circle cx="117.6" cy="351.9" r="2.25" fill="#ffffff" opacity="0.79"/>
<circle cx="440.8" cy="472.8" r="2.63" fill="#ffffff" opacity="1.00"/>
<circle cx="418.0" cy="367.1" r="2.72" fill="#ffffff" opacity="0.88"/>
<circle cx="8.5" cy="320.3" r="2.56" fill="#ffffff" opacity="1.00"/>
<circle cx="127.8" cy="338.7" r="2.32" fill="#ffffff" opacity="0.74"/>
<circle cx="81.7" cy="420.0" r="1.50" fill="#ffffff" opacity="1.00"/>
<circle cx="139.7" cy="455.9" r="2.02" fill="#ffffff" opacity="0.97"/>
<circle cx="164.9" cy="409.6" r="1.24" fill="#ffffff" opacity="0.82"/>
<circle cx="197.9" cy="399.3" r="1.54" fill="#ffffff" opacity="0.74"/>
<circle cx="55.7" cy="492.5" r="2.12" fill="#ffffff" opacity="1.00"/>
<circle cx="107.1" cy="435.3" r="2.67" fill="#ffffff" opacity="0.98"/>
<circle cx="10.7" cy="320.9" r="1.46" fill="#ffffff" opacity="1.00"/>
<circle cx="360.8" cy="449.4" r="2.18" fill="#ffffff" opacity="0.94"/>
<circle cx="112.9" cy="507.3" r="2.64" fill="#ffffff" opacity="1.00"/>
<circle cx="332.0" cy="394.3" r="2.24" fill="#ffffff" opacity="0.75"/>
<circle cx="164.5" cy="440.2" r="1.31" fill="#ffffff" opacity="0.90"/>
<circle cx="152.9" cy="505.8" r="2.78" fill="#ffffff" opacity="1.00"/>
<circle cx="156.9" cy="484.5" r="1.76" fill="#ffffff" opacity="1.00"/>
<circle cx="12.2" cy="17.4" r="2.70" fill="#ffffff" opacity="1.00"/>
<circle cx="158.3" cy="137.2" r="1.75" fill="#ffffff" opacity="0.77"/>
<circle cx="130.3" cy="124.3" r="2.25" fill="#ffffff" opacity="0.86"/>
<circle cx="34.1" cy="88.2" r="1.91" fill="#ffffff" opacity="1.00"/>
<circle cx="204.2" cy="111.4" r="2.00" fill="#ffffff" opacity="0.77"/>
<circle cx="57.7" cy="7.4" r="1.25" fill="#ffffff" opacity="1.00"/>
<circle cx="100.0" cy="65.2" r="1.88" fill="#ffffff" opacity="1.00"/>
<circle cx="191.8" cy="107.7" r="2.21" fill="#ffffff" opacity="0.80"/>
<circle cx="50.8" cy="4.9" r="1.79" fill="#ffffff" opacity="1.00"/>
<circle cx="29.4" cy="104.5" r="3.00" fill="#ffffff" opacity="1.00"/>
<circle cx="145.0" cy="37.2" r="2.81" fill="#ffffff" opacity="1.00"/>
<circle cx="171.3" cy="150.4" r="2.83" fill="#ffffff" opacity="0.71"/>
<circle cx="76.1" cy="200.9" r="2.93" fill="#ffffff" opacity="0.87"/>
<circle cx="34.7" cy="154.4" r="2.49" fill="#ffffff" opacity="1.00"/>
<circle cx="99.2" cy="108.6" r="2.08" fill="#ffffff" opacity="0.95"/>
<circle cx="198.9" cy="102.6" r="2.70" fill="#ffffff" opacity="0.80"/>
<circle cx="76.1" cy="180.8" r="2.82" fill="#ffffff" opacity="0.89"/>
<circle cx="99.1" cy="116.3" r="2.86" fill="#ffffff" opacity="0.94"/>
<circle cx="155.6" cy="99.7" r="1.60" fill="#ffffff" opacity="0.87"/>
<circle cx="69.8" cy="143.3" r="1.50" fill="#ffffff" opacity="0.96"/>
<circle cx="195.2" cy="54.9" r="2.84" fill="#ffffff" opacity="0.94"/>
<circle cx="66.6" cy="196.1" r="2.47" fill="#ffffff" opacity="0.90"/>
<circle cx="108.4" cy="106.0" r="2.37" fill="#ffffff" opacity="0.94"/>
<circle cx="126.4" cy="63.9" r="1.57" fill="#ffffff" opacity="1.00"/>
<circle cx="110.1" cy="191.3" r="2.32" fill="#ffffff" opacity="0.78"/>
<circle cx="16.2" cy="168.0" r="2.51" fill="#ffffff" opacity="1.00"/>
<circle cx="402.8" cy="278.6" r="1.87" fill="#ffffff" opacity="0.74"/>
<circle cx="455.2" cy="320.4" r="1.32" fill="#ffffff" opacity="0.92"/>
<circle cx="370.5" cy="428.8" r="1.67" fill="#ffffff" opacity="0.90"/>
<circle cx="402.2" cy="509.8" r="2.05" fill="#ffffff" opacity="1.00"/>
<circle cx="488.6" cy="243.9" r="2.35" fill="#ffffff" opacity="0.99"/>
<circle cx="390.2" cy="325.0" r="2.76" fill="#ffffff" opacity="0.74"/>
<circle cx="443.6" cy="379.5" r="2.41" fill="#ffffff" opacity="0.96"/>
<circle cx="377.8" cy="388.2" r="2.26" fill="#ffffff" opacity="0.82"/>
<circle cx="411.8" cy="15.9" r="2.76" fill="#ffffff" opacity="1.00"/>
<circle cx="436.4" cy="368.0" r="2.78" fill="#ffffff" opacity="0.92"/>
<circle cx="471.0" cy="471.6" r="1.91" fill="#ffffff" opacity="1.00"/>
<circle cx="483.5" cy="227.6" r="2.88" fill="#ffffff" opacity="0.98"/>
<circle cx="494.6" cy="49.9" r="1.44" fill="#ffffff" opacity="1.00"/>
<circle cx="399.7" cy="494.3" r="1.99" fill="#ffffff" opacity="1.00"/>
<circle cx="458.5" cy="154.1" r="2.11" fill="#ffffff" opacity="0.98"/>
<circle cx="424.0" cy="179.7" r="2.25" fill="#ffffff" opacity="0.86"/>
<circle cx="452.4" cy="463.0" r="2.43" fill="#ffffff" opacity="1.00"/>
<circle cx="501.8" cy="438.5" r="2.98" fill="#ffffff" opacity="1.00"/>
<circle cx="464.9" cy="83.5" r="2.75" fill="#ffffff" opacity="1.00"/>
<circle cx="506.9" cy="463.2" r="2.22" fill="#ffffff" opacity="1.00"/>
<circle cx="471.0" cy="108.1" r="2.70" fill="#ffffff" opacity="1.00"/>
<circle cx="450.9" cy="145.9" r="1.31" fill="#ffffff" opacity="0.97"/>
<circle cx="491.1" cy="506.8" r="1.36" fill="#ffffff" opacity="1.00"/>
<circle cx="483.4" cy="210.2" r="1.47" fill="#ffffff" opacity="0.99"/>
<circle cx="410.8" cy="393.6" r="2.77" fill="#ffffff" opacity="0.91"/>
<circle cx="375.0" cy="314.6" r="1.28" fill="#ffffff" opacity="0.68"/>
<circle cx="471.6" cy="169.4" r="2.79" fill="#ffffff" opacity="1.00"/>
<circle cx="509.2" cy="258.8" r="3.00" fill="#ffffff" opacity="1.00"/>
<circle cx="413.0" cy="39.4" r="2.28" fill="#ffffff" opacity="1.00"/>
<circle cx="373.1" cy="101.1" r="1.93" fill="#ffffff" opacity="0.89"/>
<circle cx="456.2" cy="80.0" r="1.28" fill="#ffffff" opacity="1.00"/>
<circle cx="493.0" cy="160.7" r="2.93" fill="#ffffff" opacity="1.00"/>
<circle cx="497.2" cy="193.4" r="2.03" fill="#ffffff" opacity="1.00"/>
<circle cx="443.2" cy="329.7" r="2.27" fill="#ffffff" opacity="0.89"/>
    </g>

    <!-- soft light easing toward center -->
    <rect x="0" y="0" width="512" height="512" fill="url(#centerLight)"/>

    <!-- N logo -->
    <g transform="translate(102.40,158.72) scale(0.90659)" filter="url(#softGlow)">
      <g transform="translate(-13.621196,254.699387) scale(0.100000,-0.100000)" fill="#ffffff" stroke="none">
        <path d="M1521 2539 c-180 -21 -432 -111 -598 -215 -187 -116 -392 -299 -519
-460 -114 -145 -211 -333 -250 -486 -32 -121 -19 -282 29 -373 6 -11 12 -24
13 -30 0 -5 2 -15 2 -21 1 -7 10 -15 19 -18 15 -6 14 -4 -2 16 -11 13 -4 8 16
-9 19 -18 35 -43 36 -54 1 -12 6 -26 12 -32 13 -13 44 -1 36 14 -4 6 7 4 23
-5 17 -9 39 -16 49 -16 15 0 16 -2 3 -11 -11 -8 -6 -9 20 -4 26 5 31 4 20 -4
-11 -8 -1 -10 40 -6 30 2 85 7 121 10 274 22 579 272 579 474 0 69 -25 122
-63 135 -45 16 -56 -5 -28 -55 42 -74 12 -168 -88 -272 -159 -167 -436 -256
-586 -189 -63 29 -95 59 -95 90 0 16 -4 22 -14 19 -15 -6 -31 39 -42 120 -5
38 -3 53 5 53 8 0 10 12 6 38 -5 29 -4 34 5 22 9 -12 10 -10 6 13 -4 16 -2 27
4 27 7 0 9 8 5 21 -5 16 -4 19 5 14 9 -5 10 -2 5 14 -4 12 -2 21 4 21 6 0 7 7
4 17 -4 11 -3 14 5 9 8 -5 10 -2 6 8 -4 10 -1 16 7 16 7 0 10 3 6 6 -6 6 29
83 42 94 3 3 7 12 9 20 6 24 73 130 83 130 5 0 8 4 6 9 -4 15 118 173 209 269
293 312 665 512 951 512 251 0 320 -166 211 -510 -90 -284 -231 -564 -510
-1015 -253 -409 -282 -460 -307 -537 -18 -54 -3 -74 56 -81 26 -3 50 -2 53 2
3 5 19 11 35 15 17 4 25 3 18 -2 -10 -6 -8 -11 5 -22 23 -20 62 -25 62 -8 0 7
9 19 20 26 23 14 26 42 8 61 -11 11 -10 12 0 7 10 -6 11 -1 6 18 -5 22 -3 26
17 26 21 1 22 2 7 11 -10 5 -18 20 -18 32 0 18 2 19 10 7 8 -13 10 -12 10 3 0
9 4 17 8 17 4 0 8 9 8 19 0 11 -4 17 -8 15 -4 -3 -5 2 -2 10 3 9 10 16 15 16
5 0 8 3 8 8 -4 21 2 32 13 26 8 -5 9 -2 5 10 -5 11 -3 15 5 10 8 -5 9 -2 5 9
-3 9 -1 19 5 23 6 4 8 3 5 -3 -4 -6 0 -14 9 -17 21 -8 21 -8 28 10 3 8 2 13
-3 10 -5 -3 -14 1 -20 8 -10 12 -8 13 11 9 23 -5 23 -5 3 11 -11 10 -14 15 -7
11 6 -3 13 -1 13 4 1 6 2 15 3 21 0 5 10 16 21 25 11 9 13 14 5 10 -8 -4 -6 1
4 9 11 9 16 16 11 16 -5 0 -4 5 3 12 9 9 15 9 25 -1 10 -10 8 -11 -8 -5 -17 7
-18 5 -8 -7 7 -9 9 -20 5 -25 -4 -5 1 0 12 11 10 11 23 19 27 17 12 -3 11 52
-1 64 -6 6 6 27 37 59 26 28 46 53 45 57 -1 4 10 16 23 26 14 11 25 24 25 29
0 5 15 24 34 42 31 30 34 31 50 16 14 -15 17 -15 22 -1 3 9 3 23 0 32 -5 14
-9 14 -24 3 -25 -19 143 153 303 311 268 262 519 467 719 585 121 71 316 166
327 159 5 -3 9 -1 9 4 0 10 81 44 88 37 3 -3 0 -5 -7 -5 -7 0 -10 -4 -7 -9 4
-5 -14 -30 -39 -54 -25 -25 -45 -51 -45 -57 0 -7 -22 -42 -49 -79 -287 -389
-591 -976 -666 -1284 -30 -122 -35 -263 -12 -318 15 -37 60 -79 83 -79 8 0 14
-8 14 -17 1 -31 23 -51 46 -42 27 10 38 46 15 52 -9 2 -5 3 8 2 14 -2 32 1 40
6 9 4 43 17 76 29 108 38 275 157 275 195 0 34 -34 28 -139 -25 -248 -125
-310 -109 -285 73 4 28 11 44 17 40 6 -3 7 -1 3 6 -10 16 15 112 27 104 6 -4
8 0 4 10 -9 25 115 337 135 337 5 0 7 4 3 9 -3 5 0 15 7 23 7 7 14 20 16 28
10 47 294 510 313 510 5 0 9 5 9 11 0 11 89 129 98 129 2 0 -1 -6 -7 -14 -9
-11 -6 -13 13 -13 21 0 25 4 23 27 -2 23 -5 26 -17 17 -8 -6 -4 1 9 16 27 30
41 34 41 12 0 -8 5 -15 10 -15 6 0 10 5 10 11 0 5 5 7 10 4 15 -9 12 14 -4 30
-8 9 -17 10 -25 4 -6 -5 -1 2 11 16 18 19 34 25 69 26 43 2 46 4 46 31 0 31
13 51 20 30 3 -6 10 -9 16 -5 7 4 18 8 24 9 7 1 25 17 40 34 15 18 33 39 41
46 7 8 15 20 16 27 1 6 7 22 14 34 15 26 15 56 2 69 -6 6 0 20 18 41 15 17 28
34 28 39 1 5 4 20 7 34 9 36 -22 83 -68 104 -29 14 -51 17 -92 12 -208 -24
-753 -356 -1194 -727 -63 -53 -188 -167 -276 -253 -88 -86 -164 -156 -167
-156 -5 0 89 197 100 209 2 2 13 -4 24 -14 19 -18 20 -17 19 1 -1 26 -17 73
-18 55 -1 -8 -3 -12 -6 -9 -3 3 7 32 22 64 22 46 33 58 47 56 17 -4 18 1 14
42 -4 30 -2 43 5 39 5 -3 7 -2 4 4 -3 5 3 36 13 69 10 32 19 55 20 49 0 -5 5
-3 10 5 5 8 7 22 5 31 -3 8 4 51 15 95 11 43 20 97 21 119 1 36 2 37 10 15 10
-30 1 102 -12 174 -36 193 -198 270 -498 235z m1909 -372 c0 -1 -28 -29 -62
-62 l-63 -60 60 63 c55 58 65 67 65 59z m-170 -180 c0 -2 -10 -12 -22 -23
l-23 -19 19 23 c18 21 26 27 26 19z"/>
      </g>
    </g>
  </g>
</svg>